<svg xmlns="http://www.w3.org/2000/svg" width="801" height="187" viewBox="0 0 801 187" role="img" aria-label="AI coding 活动日历"><rect x="0.5" y="0.5" width="800" height="186" rx="8" fill="#ffffff" stroke="#d0d7de"/><g font-family='-apple-system,BlinkMacSystemFont,"Segoe UI",Helvetica,Arial,sans-serif'><text x="16" y="32" font-size="15" font-weight="600" fill="#1f2328">AI coding 活动日历</text><g font-size="9" fill="#656d76"><text x="46" y="51">7月</text><text x="74" y="51">8月</text><text x="144" y="51">9月</text><text x="200" y="51">10月</text><text x="256" y="51">11月</text><text x="326" y="51">12月</text><text x="382" y="51">1月</text><text x="438" y="51">2月</text><text x="494" y="51">3月</text><text x="564" y="51">4月</text><text x="620" y="51">5月</text><text x="690" y="51">6月</text><text x="746" y="51">7月</text><text x="40" y="75.5" text-anchor="end" dominant-baseline="central">一</text><text x="40" y="103.5" text-anchor="end" dominant-baseline="central">三</text><text x="40" y="131.5" text-anchor="end" dominant-baseline="central">五</text></g><rect x="46" y="56" width="11" height="11" rx="2" fill="#ebedf0"/><rect x="46" y="70" width="11" height="11" rx="2" fill="#ebedf0"/><rect x="46" y="84" width="11" height="11" rx="2" fill="#ebedf0"/><rect x="46" y="98" width="11" height="11" rx="2" fill="#ebedf0"/><rect x="46" y="112" width="11" height="11" rx="2" fill="#ebedf0"/><rect x="46" y="126" width="11" height="11" rx="2" fill="#ebedf0"/><rect x="46" y="140" width="11" height="11" rx="2" fill="#ebedf0"/><rect x="60" y="56" width="11" height="11" rx="2" fill="#ebedf0"/><rect x="60" y="70" width="11" height="11" rx="2" fill="#ebedf0"/><rect x="60" y="84" width="11" height="11" rx="2" fill="#ebedf0"/><rect x="60" y="98" width="11" height="11" rx="2" fill="#ebedf0"/><rect x="60" y="112" width="11" height="11" rx="2" fill="#ebedf0"/><rect x="60" y="126" width="11" height="11" rx="2" fill="#ebedf0"/><rect x="60" y="140" width="11" height="11" rx="2" fill="#ebedf0"/><rect x="74" y="56" width="11" height="11" rx="2" fill="#ebedf0"/><rect x="74" y="70" width="11" height="11" rx="2" fill="#ebedf0"/><rect x="74" y="84" width="11" height="11" rx="2" fill="#ebedf0"/><rect x="74" y="98" width="11" height="11" rx="2" fill="#ebedf0"/><rect x="74" y="112" width="11" height="11" rx="2" fill="#ebedf0"/><rect x="74" y="126" width="11" height="11" rx="2" fill="#ebedf0"/><rect x="74" y="140" width="11" height="11" rx="2" fill="#ebedf0"/><rect x="88" y="56" width="11" height="11" rx="2" fill="#ebedf0"/><rect x="88" y="70" width="11" height="11" rx="2" fill="#ebedf0"/><rect x="88" y="84" width="11" height="11" rx="2" fill="#ebedf0"/><rect x="88" y="98" width="11" height="11" rx="2" fill="#ebedf0"/><rect x="88" y="112" width="11" height="11" rx="2" fill="#ebedf0"/><rect x="88" y="126" width="11" height="11" rx="2" fill="#ebedf0"/><rect x="88" y="140" width="11" height="11" rx="2" fill="#ebedf0"/><rect x="102" y="56" width="11" height="11" rx="2" fill="#ebedf0"/><rect x="102" y="70" width="11" height="11" rx="2" fill="#ebedf0"/><rect x="102" y="84" width="11" height="11" rx="2" fill="#ebedf0"/><rect x="102" y="98" width="11" height="11" rx="2" fill="#ebedf0"/><rect x="102" y="112" width="11" height="11" rx="2" fill="#ebedf0"/><rect x="102" y="126" width="11" height="11" rx="2" fill="#ebedf0"/><rect x="102" y="140" width="11" height="11" rx="2" fill="#ebedf0"/><rect x="116" y="56" width="11" height="11" rx="2" fill="#ebedf0"/><rect x="116" y="70" width="11" height="11" rx="2" fill="#ebedf0"/><rect x="116" y="84" width="11" height="11" rx="2" fill="#ebedf0"/><rect x="116" y="98" width="11" height="11" rx="2" fill="#ebedf0"/><rect x="116" y="112" width="11" height="11" rx="2" fill="#ebedf0"/><rect x="116" y="126" width="11" height="11" rx="2" fill="#ebedf0"/><rect x="116" y="140" width="11" height="11" rx="2" fill="#ebedf0"/><rect x="130" y="56" width="11" height="11" rx="2" fill="#ebedf0"/><rect x="130" y="70" width="11" height="11" rx="2" fill="#ebedf0"/><rect x="130" y="84" width="11" height="11" rx="2" fill="#ebedf0"/><rect x="130" y="98" width="11" height="11" rx="2" fill="#ebedf0"/><rect x="130" y="112" width="11" height="11" rx="2" fill="#ebedf0"/><rect x="130" y="126" width="11" height="11" rx="2" fill="#ebedf0"/><rect x="130" y="140" width="11" height="11" rx="2" fill="#ebedf0"/><rect x="144" y="56" width="11" height="11" rx="2" fill="#ebedf0"/><rect x="144" y="70" width="11" height="11" rx="2" fill="#ebedf0"/><rect x="144" y="84" width="11" height="11" rx="2" fill="#ebedf0"/><rect x="144" y="98" width="11" height="11" rx="2" fill="#ebedf0"/><rect x="144" y="112" width="11" height="11" rx="2" fill="#ebedf0"/><rect x="144" y="126" width="11" height="11" rx="2" fill="#ebedf0"/><rect x="144" y="140" width="11" height="11" rx="2" fill="#ebedf0"/><rect x="158" y="56" width="11" height="11" rx="2" fill="#ebedf0"/><rect x="158" y="70" width="11" height="11" rx="2" fill="#ebedf0"/><rect x="158" y="84" width="11" height="11" rx="2" fill="#ebedf0"/><rect x="158" y="98" width="11" height="11" rx="2" fill="#ebedf0"/><rect x="158" y="112" width="11" height="11" rx="2" fill="#ebedf0"/><rect x="158" y="126" width="11" height="11" rx="2" fill="#ebedf0"/><rect x="158" y="140" width="11" height="11" rx="2" fill="#ebedf0"/><rect x="172" y="56" width="11" height="11" rx="2" fill="#ebedf0"/><rect x="172" y="70" width="11" height="11" rx="2" fill="#ebedf0"/><rect x="172" y="84" width="11" height="11" rx="2" fill="#ebedf0"/><rect x="172" y="98" width="11" height="11" rx="2" fill="#ebedf0"/><rect x="172" y="112" width="11" height="11" rx="2" fill="#ebedf0"/><rect x="172" y="126" width="11" height="11" rx="2" fill="#ebedf0"/><rect x="172" y="140" width="11" height="11" rx="2" fill="#ebedf0"/><rect x="186" y="56" width="11" height="11" rx="2" fill="#ebedf0"/><rect x="186" y="70" width="11" height="11" rx="2" fill="#ebedf0"/><rect x="186" y="84" width="11" height="11" rx="2" fill="#ebedf0"/><rect x="186" y="98" width="11" height="11" rx="2" fill="#ebedf0"/><rect x="186" y="112" width="11" height="11" rx="2" fill="#ebedf0"/><rect x="186" y="126" width="11" height="11" rx="2" fill="#ebedf0"/><rect x="186" y="140" width="11" height="11" rx="2" fill="#ebedf0"/><rect x="200" y="56" width="11" height="11" rx="2" fill="#ebedf0"/><rect x="200" y="70" width="11" height="11" rx="2" fill="#ebedf0"/><rect x="200" y="84" width="11" height="11" rx="2" fill="#ebedf0"/><rect x="200" y="98" width="11" height="11" rx="2" fill="#ebedf0"/><rect x="200" y="112" width="11" height="11" rx="2" fill="#ebedf0"/><rect x="200" y="126" width="11" height="11" rx="2" fill="#ebedf0"/><rect x="200" y="140" width="11" height="11" rx="2" fill="#ebedf0"/><rect x="214" y="56" width="11" height="11" rx="2" fill="#ebedf0"/><rect x="214" y="70" width="11" height="11" rx="2" fill="#ebedf0"/><rect x="214" y="84" width="11" height="11" rx="2" fill="#ebedf0"/><rect x="214" y="98" width="11" height="11" rx="2" fill="#ebedf0"/><rect x="214" y="112" width="11" height="11" rx="2" fill="#ebedf0"/><rect x="214" y="126" width="11" height="11" rx="2" fill="#ebedf0"/><rect x="214" y="140" width="11" height="11" rx="2" fill="#ebedf0"/><rect x="228" y="56" width="11" height="11" rx="2" fill="#ebedf0"/><rect x="228" y="70" width="11" height="11" rx="2" fill="#ebedf0"/><rect x="228" y="84" width="11" height="11" rx="2" fill="#ebedf0"/><rect x="228" y="98" width="11" height="11" rx="2" fill="#ebedf0"/><rect x="228" y="112" width="11" height="11" rx="2" fill="#ebedf0"/><rect x="228" y="126" width="11" height="11" rx="2" fill="#ebedf0"/><rect x="228" y="140" width="11" height="11" rx="2" fill="#ebedf0"/><rect x="242" y="56" width="11" height="11" rx="2" fill="#ebedf0"/><rect x="242" y="70" width="11" height="11" rx="2" fill="#ebedf0"/><rect x="242" y="84" width="11" height="11" rx="2" fill="#ebedf0"/><rect x="242" y="98" width="11" height="11" rx="2" fill="#ebedf0"/><rect x="242" y="112" width="11" height="11" rx="2" fill="#ebedf0"/><rect x="242" y="126" width="11" height="11" rx="2" fill="#ebedf0"/><rect x="242" y="140" width="11" height="11" rx="2" fill="#ebedf0"/><rect x="256" y="56" width="11" height="11" rx="2" fill="#ebedf0"/><rect x="256" y="70" width="11" height="11" rx="2" fill="#ebedf0"/><rect x="256" y="84" width="11" height="11" rx="2" fill="#ebedf0"/><rect x="256" y="98" width="11" height="11" rx="2" fill="#ebedf0"/><rect x="256" y="112" width="11" height="11" rx="2" fill="#ebedf0"/><rect x="256" y="126" width="11" height="11" rx="2" fill="#ebedf0"/><rect x="256" y="140" width="11" height="11" rx="2" fill="#ebedf0"/><rect x="270" y="56" width="11" height="11" rx="2" fill="#ebedf0"/><rect x="270" y="70" width="11" height="11" rx="2" fill="#ebedf0"/><rect x="270" y="84" width="11" height="11" rx="2" fill="#ebedf0"/><rect x="270" y="98" width="11" height="11" rx="2" fill="#ebedf0"/><rect x="270" y="112" width="11" height="11" rx="2" fill="#ebedf0"/><rect x="270" y="126" width="11" height="11" rx="2" fill="#ebedf0"/><rect x="270" y="140" width="11" height="11" rx="2" fill="#ebedf0"/><rect x="284" y="56" width="11" height="11" rx="2" fill="#ebedf0"/><rect x="284" y="70" width="11" height="11" rx="2" fill="#ebedf0"/><rect x="284" y="84" width="11" height="11" rx="2" fill="#ebedf0"/><rect x="284" y="98" width="11" height="11" rx="2" fill="#ebedf0"/><rect x="284" y="112" width="11" height="11" rx="2" fill="#ebedf0"/><rect x="284" y="126" width="11" height="11" rx="2" fill="#ebedf0"/><rect x="284" y="140" width="11" height="11" rx="2" fill="#ebedf0"/><rect x="298" y="56" width="11" height="11" rx="2" fill="#ebedf0"/><rect x="298" y="70" width="11" height="11" rx="2" fill="#ebedf0"/><rect x="298" y="84" width="11" height="11" rx="2" fill="#ebedf0"/><rect x="298" y="98" width="11" height="11" rx="2" fill="#ebedf0"/><rect x="298" y="112" width="11" height="11" rx="2" fill="#ebedf0"/><rect x="298" y="126" width="11" height="11" rx="2" fill="#ebedf0"/><rect x="298" y="140" width="11" height="11" rx="2" fill="#ebedf0"/><rect x="312" y="56" width="11" height="11" rx="2" fill="#ebedf0"/><rect x="312" y="70" width="11" height="11" rx="2" fill="#ebedf0"/><rect x="312" y="84" width="11" height="11" rx="2" fill="#ebedf0"/><rect x="312" y="98" width="11" height="11" rx="2" fill="#ebedf0"/><rect x="312" y="112" width="11" height="11" rx="2" fill="#ebedf0"/><rect x="312" y="126" width="11" height="11" rx="2" fill="#ebedf0"/><rect x="312" y="140" width="11" height="11" rx="2" fill="#ebedf0"/><rect x="326" y="56" width="11" height="11" rx="2" fill="#ebedf0"/><rect x="326" y="70" width="11" height="11" rx="2" fill="#ebedf0"/><rect x="326" y="84" width="11" height="11" rx="2" fill="#ebedf0"/><rect x="326" y="98" width="11" height="11" rx="2" fill="#ebedf0"/><rect x="326" y="112" width="11" height="11" rx="2" fill="#ebedf0"/><rect x="326" y="126" width="11" height="11" rx="2" fill="#ebedf0"/><rect x="326" y="140" width="11" height="11" rx="2" fill="#ebedf0"/><rect x="340" y="56" width="11" height="11" rx="2" fill="#ebedf0"/><rect x="340" y="70" width="11" height="11" rx="2" fill="#ebedf0"/><rect x="340" y="84" width="11" height="11" rx="2" fill="#ebedf0"/><rect x="340" y="98" width="11" height="11" rx="2" fill="#ebedf0"/><rect x="340" y="112" width="11" height="11" rx="2" fill="#ebedf0"/><rect x="340" y="126" width="11" height="11" rx="2" fill="#ebedf0"/><rect x="340" y="140" width="11" height="11" rx="2" fill="#ebedf0"/><rect x="354" y="56" width="11" height="11" rx="2" fill="#ebedf0"/><rect x="354" y="70" width="11" height="11" rx="2" fill="#ebedf0"/><rect x="354" y="84" width="11" height="11" rx="2" fill="#ebedf0"/><rect x="354" y="98" width="11" height="11" rx="2" fill="#ebedf0"/><rect x="354" y="112" width="11" height="11" rx="2" fill="#ebedf0"/><rect x="354" y="126" width="11" height="11" rx="2" fill="#ebedf0"/><rect x="354" y="140" width="11" height="11" rx="2" fill="#ebedf0"/><rect x="368" y="56" width="11" height="11" rx="2" fill="#ebedf0"/><rect x="368" y="70" width="11" height="11" rx="2" fill="#ebedf0"/><rect x="368" y="84" width="11" height="11" rx="2" fill="#ebedf0"/><rect x="368" y="98" width="11" height="11" rx="2" fill="#ebedf0"/><rect x="368" y="112" width="11" height="11" rx="2" fill="#ebedf0"/><rect x="368" y="126" width="11" height="11" rx="2" fill="#ebedf0"/><rect x="368" y="140" width="11" height="11" rx="2" fill="#ebedf0"/><rect x="382" y="56" width="11" height="11" rx="2" fill="#ebedf0"/><rect x="382" y="70" width="11" height="11" rx="2" fill="#ebedf0"/><rect x="382" y="84" width="11" height="11" rx="2" fill="#ebedf0"/><rect x="382" y="98" width="11" height="11" rx="2" fill="#ebedf0"/><rect x="382" y="112" width="11" height="11" rx="2" fill="#ebedf0"/><rect x="382" y="126" width="11" height="11" rx="2" fill="#ebedf0"/><rect x="382" y="140" width="11" height="11" rx="2" fill="#ebedf0"/><rect x="396" y="56" width="11" height="11" rx="2" fill="#ebedf0"/><rect x="396" y="70" width="11" height="11" rx="2" fill="#ebedf0"/><rect x="396" y="84" width="11" height="11" rx="2" fill="#ebedf0"/><rect x="396" y="98" width="11" height="11" rx="2" fill="#ebedf0"/><rect x="396" y="112" width="11" height="11" rx="2" fill="#ebedf0"/><rect x="396" y="126" width="11" height="11" rx="2" fill="#ebedf0"/><rect x="396" y="140" width="11" height="11" rx="2" fill="#ebedf0"/><rect x="410" y="56" width="11" height="11" rx="2" fill="#ebedf0"/><rect x="410" y="70" width="11" height="11" rx="2" fill="#ebedf0"/><rect x="410" y="84" width="11" height="11" rx="2" fill="#ebedf0"/><rect x="410" y="98" width="11" height="11" rx="2" fill="#ebedf0"/><rect x="410" y="112" width="11" height="11" rx="2" fill="#ebedf0"/><rect x="410" y="126" width="11" height="11" rx="2" fill="#ebedf0"/><rect x="410" y="140" width="11" height="11" rx="2" fill="#ebedf0"/><rect x="424" y="56" width="11" height="11" rx="2" fill="#ebedf0"/><rect x="424" y="70" width="11" height="11" rx="2" fill="#ebedf0"/><rect x="424" y="84" width="11" height="11" rx="2" fill="#ebedf0"/><rect x="424" y="98" width="11" height="11" rx="2" fill="#ebedf0"/><rect x="424" y="112" width="11" height="11" rx="2" fill="#ebedf0"/><rect x="424" y="126" width="11" height="11" rx="2" fill="#ebedf0"/><rect x="424" y="140" width="11" height="11" rx="2" fill="#ebedf0"/><rect x="438" y="56" width="11" height="11" rx="2" fill="#ebedf0"/><rect x="438" y="70" width="11" height="11" rx="2" fill="#ebedf0"/><rect x="438" y="84" width="11" height="11" rx="2" fill="#ebedf0"/><rect x="438" y="98" width="11" height="11" rx="2" fill="#ebedf0"/><rect x="438" y="112" width="11" height="11" rx="2" fill="#ebedf0"/><rect x="438" y="126" width="11" height="11" rx="2" fill="#ebedf0"/><rect x="438" y="140" width="11" height="11" rx="2" fill="#ebedf0"/><rect x="452" y="56" width="11" height="11" rx="2" fill="#ebedf0"/><rect x="452" y="70" width="11" height="11" rx="2" fill="#ebedf0"/><rect x="452" y="84" width="11" height="11" rx="2" fill="#ebedf0"/><rect x="452" y="98" width="11" height="11" rx="2" fill="#ebedf0"/><rect x="452" y="112" width="11" height="11" rx="2" fill="#ebedf0"/><rect x="452" y="126" width="11" height="11" rx="2" fill="#ebedf0"/><rect x="452" y="140" width="11" height="11" rx="2" fill="#ebedf0"/><rect x="466" y="56" width="11" height="11" rx="2" fill="#ebedf0"/><rect x="466" y="70" width="11" height="11" rx="2" fill="#ebedf0"/><rect x="466" y="84" width="11" height="11" rx="2" fill="#ebedf0"/><rect x="466" y="98" width="11" height="11" rx="2" fill="#ebedf0"/><rect x="466" y="112" width="11" height="11" rx="2" fill="#ebedf0"/><rect x="466" y="126" width="11" height="11" rx="2" fill="#ebedf0"/><rect x="466" y="140" width="11" height="11" rx="2" fill="#ebedf0"/><rect x="480" y="56" width="11" height="11" rx="2" fill="#ebedf0"/><rect x="480" y="70" width="11" height="11" rx="2" fill="#ebedf0"/><rect x="480" y="84" width="11" height="11" rx="2" fill="#ebedf0"/><rect x="480" y="98" width="11" height="11" rx="2" fill="#ebedf0"/><rect x="480" y="112" width="11" height="11" rx="2" fill="#ebedf0"/><rect x="480" y="126" width="11" height="11" rx="2" fill="#ebedf0"/><rect x="480" y="140" width="11" height="11" rx="2" fill="#ebedf0"/><rect x="494" y="56" width="11" height="11" rx="2" fill="#ebedf0"/><rect x="494" y="70" width="11" height="11" rx="2" fill="#ebedf0"/><rect x="494" y="84" width="11" height="11" rx="2" fill="#ebedf0"/><rect x="494" y="98" width="11" height="11" rx="2" fill="#ebedf0"/><rect x="494" y="112" width="11" height="11" rx="2" fill="#ebedf0"/><rect x="494" y="126" width="11" height="11" rx="2" fill="#ebedf0"/><rect x="494" y="140" width="11" height="11" rx="2" fill="#ebedf0"/><rect x="508" y="56" width="11" height="11" rx="2" fill="#ebedf0"/><rect x="508" y="70" width="11" height="11" rx="2" fill="#ebedf0"/><rect x="508" y="84" width="11" height="11" rx="2" fill="#ebedf0"/><rect x="508" y="98" width="11" height="11" rx="2" fill="#ebedf0"/><rect x="508" y="112" width="11" height="11" rx="2" fill="#ebedf0"/><rect x="508" y="126" width="11" height="11" rx="2" fill="#ebedf0"/><rect x="508" y="140" width="11" height="11" rx="2" fill="#ebedf0"/><rect x="522" y="56" width="11" height="11" rx="2" fill="#ebedf0"/><rect x="522" y="70" width="11" height="11" rx="2" fill="#ebedf0"/><rect x="522" y="84" width="11" height="11" rx="2" fill="#ebedf0"/><rect x="522" y="98" width="11" height="11" rx="2" fill="#ebedf0"/><rect x="522" y="112" width="11" height="11" rx="2" fill="#ebedf0"/><rect x="522" y="126" width="11" height="11" rx="2" fill="#ebedf0"/><rect x="522" y="140" width="11" height="11" rx="2" fill="#ebedf0"/><rect x="536" y="56" width="11" height="11" rx="2" fill="#ebedf0"/><rect x="536" y="70" width="11" height="11" rx="2" fill="#ebedf0"/><rect x="536" y="84" width="11" height="11" rx="2" fill="#ebedf0"/><rect x="536" y="98" width="11" height="11" rx="2" fill="#ebedf0"/><rect x="536" y="112" width="11" height="11" rx="2" fill="#ebedf0"/><rect x="536" y="126" width="11" height="11" rx="2" fill="#ebedf0"/><rect x="536" y="140" width="11" height="11" rx="2" fill="#ebedf0"/><rect x="550" y="56" width="11" height="11" rx="2" fill="#ebedf0"/><rect x="550" y="70" width="11" height="11" rx="2" fill="#ebedf0"/><rect x="550" y="84" width="11" height="11" rx="2" fill="#ebedf0"/><rect x="550" y="98" width="11" height="11" rx="2" fill="#ebedf0"/><rect x="550" y="112" width="11" height="11" rx="2" fill="#ebedf0"/><rect x="550" y="126" width="11" height="11" rx="2" fill="#ebedf0"/><rect x="550" y="140" width="11" height="11" rx="2" fill="#ebedf0"/><rect x="564" y="56" width="11" height="11" rx="2" fill="#ebedf0"/><rect x="564" y="70" width="11" height="11" rx="2" fill="#ebedf0"/><rect x="564" y="84" width="11" height="11" rx="2" fill="#ebedf0"/><rect x="564" y="98" width="11" height="11" rx="2" fill="#ebedf0"/><rect x="564" y="112" width="11" height="11" rx="2" fill="#ebedf0"/><rect x="564" y="126" width="11" height="11" rx="2" fill="#ebedf0"/><rect x="564" y="140" width="11" height="11" rx="2" fill="#ebedf0"/><rect x="578" y="56" width="11" height="11" rx="2" fill="#ebedf0"/><rect x="578" y="70" width="11" height="11" rx="2" fill="#ebedf0"/><rect x="578" y="84" width="11" height="11" rx="2" fill="#ebedf0"/><rect x="578" y="98" width="11" height="11" rx="2" fill="#ebedf0"/><rect x="578" y="112" width="11" height="11" rx="2" fill="#ebedf0"/><rect x="578" y="126" width="11" height="11" rx="2" fill="#ebedf0"/><rect x="578" y="140" width="11" height="11" rx="2" fill="#ebedf0"/><rect x="592" y="56" width="11" height="11" rx="2" fill="#ebedf0"/><rect x="592" y="70" width="11" height="11" rx="2" fill="#ebedf0"/><rect x="592" y="84" width="11" height="11" rx="2" fill="#ebedf0"/><rect x="592" y="98" width="11" height="11" rx="2" fill="#ebedf0"/><rect x="592" y="112" width="11" height="11" rx="2" fill="#ebedf0"/><rect x="592" y="126" width="11" height="11" rx="2" fill="#40c463"/><rect x="592" y="140" width="11" height="11" rx="2" fill="#40c463"/><rect x="606" y="56" width="11" height="11" rx="2" fill="#40c463"/><rect x="606" y="70" width="11" height="11" rx="2" fill="#9be9a8"/><rect x="606" y="84" width="11" height="11" rx="2" fill="#ebedf0"/><rect x="606" y="98" width="11" height="11" rx="2" fill="#30a14e"/><rect x="606" y="112" width="11" height="11" rx="2" fill="#9be9a8"/><rect x="606" y="126" width="11" height="11" rx="2" fill="#40c463"/><rect x="606" y="140" width="11" height="11" rx="2" fill="#30a14e"/><rect x="620" y="56" width="11" height="11" rx="2" fill="#30a14e"/><rect x="620" y="70" width="11" height="11" rx="2" fill="#9be9a8"/><rect x="620" y="84" width="11" height="11" rx="2" fill="#40c463"/><rect x="620" y="98" width="11" height="11" rx="2" fill="#40c463"/><rect x="620" y="112" width="11" height="11" rx="2" fill="#9be9a8"/><rect x="620" y="126" width="11" height="11" rx="2" fill="#9be9a8"/><rect x="620" y="140" width="11" height="11" rx="2" fill="#9be9a8"/><rect x="634" y="56" width="11" height="11" rx="2" fill="#9be9a8"/><rect x="634" y="70" width="11" height="11" rx="2" fill="#9be9a8"/><rect x="634" y="84" width="11" height="11" rx="2" fill="#9be9a8"/><rect x="634" y="98" width="11" height="11" rx="2" fill="#9be9a8"/><rect x="634" y="112" width="11" height="11" rx="2" fill="#30a14e"/><rect x="634" y="126" width="11" height="11" rx="2" fill="#40c463"/><rect x="634" y="140" width="11" height="11" rx="2" fill="#40c463"/><rect x="648" y="56" width="11" height="11" rx="2" fill="#30a14e"/><rect x="648" y="70" width="11" height="11" rx="2" fill="#30a14e"/><rect x="648" y="84" width="11" height="11" rx="2" fill="#9be9a8"/><rect x="648" y="98" width="11" height="11" rx="2" fill="#9be9a8"/><rect x="648" y="112" width="11" height="11" rx="2" fill="#ebedf0"/><rect x="648" y="126" width="11" height="11" rx="2" fill="#ebedf0"/><rect x="648" y="140" width="11" height="11" rx="2" fill="#9be9a8"/><rect x="662" y="56" width="11" height="11" rx="2" fill="#9be9a8"/><rect x="662" y="70" width="11" height="11" rx="2" fill="#40c463"/><rect x="662" y="84" width="11" height="11" rx="2" fill="#9be9a8"/><rect x="662" y="98" width="11" height="11" rx="2" fill="#9be9a8"/><rect x="662" y="112" width="11" height="11" rx="2" fill="#9be9a8"/><rect x="662" y="126" width="11" height="11" rx="2" fill="#9be9a8"/><rect x="662" y="140" width="11" height="11" rx="2" fill="#9be9a8"/><rect x="676" y="56" width="11" height="11" rx="2" fill="#9be9a8"/><rect x="676" y="70" width="11" height="11" rx="2" fill="#9be9a8"/><rect x="676" y="84" width="11" height="11" rx="2" fill="#40c463"/><rect x="676" y="98" width="11" height="11" rx="2" fill="#30a14e"/><rect x="676" y="112" width="11" height="11" rx="2" fill="#30a14e"/><rect x="676" y="126" width="11" height="11" rx="2" fill="#40c463"/><rect x="676" y="140" width="11" height="11" rx="2" fill="#30a14e"/><rect x="690" y="56" width="11" height="11" rx="2" fill="#30a14e"/><rect x="690" y="70" width="11" height="11" rx="2" fill="#9be9a8"/><rect x="690" y="84" width="11" height="11" rx="2" fill="#40c463"/><rect x="690" y="98" width="11" height="11" rx="2" fill="#9be9a8"/><rect x="690" y="112" width="11" height="11" rx="2" fill="#9be9a8"/><rect x="690" y="126" width="11" height="11" rx="2" fill="#40c463"/><rect x="690" y="140" width="11" height="11" rx="2" fill="#40c463"/><rect x="704" y="56" width="11" height="11" rx="2" fill="#30a14e"/><rect x="704" y="70" width="11" height="11" rx="2" fill="#30a14e"/><rect x="704" y="84" width="11" height="11" rx="2" fill="#40c463"/><rect x="704" y="98" width="11" height="11" rx="2" fill="#40c463"/><rect x="704" y="112" width="11" height="11" rx="2" fill="#9be9a8"/><rect x="704" y="126" width="11" height="11" rx="2" fill="#9be9a8"/><rect x="704" y="140" width="11" height="11" rx="2" fill="#9be9a8"/><rect x="718" y="56" width="11" height="11" rx="2" fill="#40c463"/><rect x="718" y="70" width="11" height="11" rx="2" fill="#9be9a8"/><rect x="718" y="84" width="11" height="11" rx="2" fill="#40c463"/><rect x="718" y="98" width="11" height="11" rx="2" fill="#9be9a8"/><rect x="718" y="112" width="11" height="11" rx="2" fill="#40c463"/><rect x="718" y="126" width="11" height="11" rx="2" fill="#216e39"/><rect x="718" y="140" width="11" height="11" rx="2" fill="#216e39"/><rect x="732" y="56" width="11" height="11" rx="2" fill="#30a14e"/><rect x="732" y="70" width="11" height="11" rx="2" fill="#40c463"/><rect x="732" y="84" width="11" height="11" rx="2" fill="#40c463"/><rect x="732" y="98" width="11" height="11" rx="2" fill="#40c463"/><rect x="732" y="112" width="11" height="11" rx="2" fill="#40c463"/><rect x="732" y="126" width="11" height="11" rx="2" fill="#40c463"/><rect x="732" y="140" width="11" height="11" rx="2" fill="#30a14e"/><rect x="746" y="56" width="11" height="11" rx="2" fill="#9be9a8"/><rect x="746" y="70" width="11" height="11" rx="2" fill="#40c463"/><rect x="746" y="84" width="11" height="11" rx="2" fill="#9be9a8"/><rect x="746" y="98" width="11" height="11" rx="2" fill="#9be9a8"/><rect x="746" y="112" width="11" height="11" rx="2" fill="#40c463"/><rect x="746" y="126" width="11" height="11" rx="2" fill="#9be9a8"/><rect x="746" y="140" width="11" height="11" rx="2" fill="#9be9a8"/><rect x="760" y="56" width="11" height="11" rx="2" fill="#9be9a8"/><rect x="760" y="70" width="11" height="11" rx="2" fill="#40c463"/><rect x="760" y="84" width="11" height="11" rx="2" fill="#9be9a8"/><rect x="760" y="98" width="11" height="11" rx="2" fill="#9be9a8"/><rect x="760" y="112" width="11" height="11" rx="2" fill="#40c463"/><rect x="760" y="126" width="11" height="11" rx="2" fill="#40c463"/><rect x="760" y="140" width="11" height="11" rx="2" fill="#30a14e"/><rect x="774" y="56" width="11" height="11" rx="2" fill="#40c463"/><rect x="774" y="70" width="11" height="11" rx="2" fill="#40c463"/><rect x="774" y="84" width="11" height="11" rx="2" fill="#9be9a8"/><rect x="774" y="98" width="11" height="11" rx="2" fill="#40c463"/><rect x="774" y="112" width="11" height="11" rx="2" fill="#ebedf0"/><rect x="774" y="126" width="11" height="11" rx="2" fill="#ebedf0"/><text x="16" y="173" font-size="11" fill="#656d76">共 5594 次 · 活跃 87 天 · 近 53 周 · 截至 2026-07-24</text></g></svg>