<svg xmlns="http://www.w3.org/2000/svg" width="300" height="246" viewBox="0 0 300 246" role="img" aria-label="命令 / 技能排行"><rect x="0.5" y="0.5" width="299" height="245" rx="8" fill="#ffffff" stroke="#d0d7de"/><g font-family='-apple-system,BlinkMacSystemFont,"Segoe UI",Helvetica,Arial,sans-serif'><text x="16" y="31" font-size="15" font-weight="600" fill="#1f2328">命令 / 技能排行</text><text x="16" y="61" font-size="12" fill="#1f2328">/gstack-offi…</text><rect x="120" y="50" width="126" height="12" rx="2" fill="#40c463"/><text x="284" y="61" text-anchor="end" font-size="11.5" font-weight="600" fill="#656d76">265</text><text x="16" y="83" font-size="12" fill="#1f2328">/gstack-plan…</text><rect x="120" y="72" width="76" height="12" rx="2" fill="#40c463"/><text x="284" y="83" text-anchor="end" font-size="11.5" font-weight="600" fill="#656d76">159</text><text x="16" y="105" font-size="12" fill="#1f2328">/model</text><rect x="120" y="94" width="42" height="12" rx="2" fill="#40c463"/><text x="284" y="105" text-anchor="end" font-size="11.5" font-weight="600" fill="#656d76">89</text><text x="16" y="127" font-size="12" fill="#1f2328">/plan-eng-re…</text><rect x="120" y="116" width="39" height="12" rx="2" fill="#40c463"/><text x="284" y="127" text-anchor="end" font-size="11.5" font-weight="600" fill="#656d76">82</text><text x="16" y="149" font-size="12" fill="#1f2328">/gstack-inve…</text><rect x="120" y="138" width="35" height="12" rx="2" fill="#40c463"/><text x="284" y="149" text-anchor="end" font-size="11.5" font-weight="600" fill="#656d76">73</text><text x="16" y="171" font-size="12" fill="#1f2328">/plan-ceo-re…</text><rect x="120" y="160" width="23" height="12" rx="2" fill="#40c463"/><text x="284" y="171" text-anchor="end" font-size="11.5" font-weight="600" fill="#656d76">49</text><text x="16" y="193" font-size="12" fill="#1f2328">/office-hours</text><rect x="120" y="182" width="22" height="12" rx="2" fill="#40c463"/><text x="284" y="193" text-anchor="end" font-size="11.5" font-weight="600" fill="#656d76">46</text><text x="16" y="215" font-size="12" fill="#1f2328">/ship</text><rect x="120" y="204" width="19" height="12" rx="2" fill="#40c463"/><text x="284" y="215" text-anchor="end" font-size="11.5" font-weight="600" fill="#656d76">41</text><text x="16" y="240" font-size="11" fill="#656d76">共 1125 次调用 · 47 个命令 · 截至 2026-07-24</text></g></svg>