<svg xmlns="http://www.w3.org/2000/svg" width="494" height="215" viewBox="0 0 494 215" role="img" aria-label="AI coding 作息热力图"><rect x="0.5" y="0.5" width="493" height="214" rx="8" fill="#ffffff" stroke="#d0d7de"/><g font-family='-apple-system,BlinkMacSystemFont,"Segoe UI",Helvetica,Arial,sans-serif'><text x="16" y="32" font-size="15" font-weight="600" fill="#1f2328">AI coding 作息热力图</text><g font-size="10" fill="#656d76"><text x="57" y="51" text-anchor="middle">0</text><text x="129" y="51" text-anchor="middle">4</text><text x="201" y="51" text-anchor="middle">8</text><text x="273" y="51" text-anchor="middle">12</text><text x="345" y="51" text-anchor="middle">16</text><text x="417" y="51" text-anchor="middle">20</text><text x="42" y="64" text-anchor="end" dominant-baseline="central">一</text><text x="42" y="82" text-anchor="end" dominant-baseline="central">二</text><text x="42" y="100" text-anchor="end" dominant-baseline="central">三</text><text x="42" y="118" text-anchor="end" dominant-baseline="central">四</text><text x="42" y="136" text-anchor="end" dominant-baseline="central">五</text><text x="42" y="154" text-anchor="end" dominant-baseline="central">六</text><text x="42" y="172" text-anchor="end" dominant-baseline="central">日</text></g><rect x="50" y="57" width="14" height="14" rx="2" fill="#9be9a8"/><rect x="68" y="57" width="14" height="14" rx="2" fill="#9be9a8"/><rect x="86" y="57" width="14" height="14" rx="2" fill="#9be9a8"/><rect x="104" y="57" width="14" height="14" rx="2" fill="#9be9a8"/><rect x="122" y="57" width="14" height="14" rx="2" fill="#9be9a8"/><rect x="140" y="57" width="14" height="14" rx="2" fill="#9be9a8"/><rect x="158" y="57" width="14" height="14" rx="2" fill="#9be9a8"/><rect x="176" y="57" width="14" height="14" rx="2" fill="#ebedf0"/><rect x="194" y="57" width="14" height="14" rx="2" fill="#9be9a8"/><rect x="212" y="57" width="14" height="14" rx="2" fill="#9be9a8"/><rect x="230" y="57" width="14" height="14" rx="2" fill="#40c463"/><rect x="248" y="57" width="14" height="14" rx="2" fill="#40c463"/><rect x="266" y="57" width="14" height="14" rx="2" fill="#216e39"/><rect x="284" y="57" width="14" height="14" rx="2" fill="#40c463"/><rect x="302" y="57" width="14" height="14" rx="2" fill="#216e39"/><rect x="320" y="57" width="14" height="14" rx="2" fill="#30a14e"/><rect x="338" y="57" width="14" height="14" rx="2" fill="#30a14e"/><rect x="356" y="57" width="14" height="14" rx="2" fill="#9be9a8"/><rect x="374" y="57" width="14" height="14" rx="2" fill="#40c463"/><rect x="392" y="57" width="14" height="14" rx="2" fill="#40c463"/><rect x="410" y="57" width="14" height="14" rx="2" fill="#40c463"/><rect x="428" y="57" width="14" height="14" rx="2" fill="#40c463"/><rect x="446" y="57" width="14" height="14" rx="2" fill="#9be9a8"/><rect x="464" y="57" width="14" height="14" rx="2" fill="#40c463"/><rect x="50" y="75" width="14" height="14" rx="2" fill="#9be9a8"/><rect x="68" y="75" width="14" height="14" rx="2" fill="#ebedf0"/><rect x="86" y="75" width="14" height="14" rx="2" fill="#ebedf0"/><rect x="104" y="75" width="14" height="14" rx="2" fill="#ebedf0"/><rect x="122" y="75" width="14" height="14" rx="2" fill="#ebedf0"/><rect x="140" y="75" width="14" height="14" rx="2" fill="#ebedf0"/><rect x="158" y="75" width="14" height="14" rx="2" fill="#ebedf0"/><rect x="176" y="75" width="14" height="14" rx="2" fill="#ebedf0"/><rect x="194" y="75" width="14" height="14" rx="2" fill="#9be9a8"/><rect x="212" y="75" width="14" height="14" rx="2" fill="#9be9a8"/><rect x="230" y="75" width="14" height="14" rx="2" fill="#30a14e"/><rect x="248" y="75" width="14" height="14" rx="2" fill="#30a14e"/><rect x="266" y="75" width="14" height="14" rx="2" fill="#40c463"/><rect x="284" y="75" width="14" height="14" rx="2" fill="#9be9a8"/><rect x="302" y="75" width="14" height="14" rx="2" fill="#40c463"/><rect x="320" y="75" width="14" height="14" rx="2" fill="#9be9a8"/><rect x="338" y="75" width="14" height="14" rx="2" fill="#9be9a8"/><rect x="356" y="75" width="14" height="14" rx="2" fill="#40c463"/><rect x="374" y="75" width="14" height="14" rx="2" fill="#40c463"/><rect x="392" y="75" width="14" height="14" rx="2" fill="#40c463"/><rect x="410" y="75" width="14" height="14" rx="2" fill="#40c463"/><rect x="428" y="75" width="14" height="14" rx="2" fill="#40c463"/><rect x="446" y="75" width="14" height="14" rx="2" fill="#40c463"/><rect x="464" y="75" width="14" height="14" rx="2" fill="#9be9a8"/><rect x="50" y="93" width="14" height="14" rx="2" fill="#ebedf0"/><rect x="68" y="93" width="14" height="14" rx="2" fill="#ebedf0"/><rect x="86" y="93" width="14" height="14" rx="2" fill="#ebedf0"/><rect x="104" y="93" width="14" height="14" rx="2" fill="#ebedf0"/><rect x="122" y="93" width="14" height="14" rx="2" fill="#ebedf0"/><rect x="140" y="93" width="14" height="14" rx="2" fill="#ebedf0"/><rect x="158" y="93" width="14" height="14" rx="2" fill="#9be9a8"/><rect x="176" y="93" width="14" height="14" rx="2" fill="#9be9a8"/><rect x="194" y="93" width="14" height="14" rx="2" fill="#9be9a8"/><rect x="212" y="93" width="14" height="14" rx="2" fill="#40c463"/><rect x="230" y="93" width="14" height="14" rx="2" fill="#40c463"/><rect x="248" y="93" width="14" height="14" rx="2" fill="#40c463"/><rect x="266" y="93" width="14" height="14" rx="2" fill="#40c463"/><rect x="284" y="93" width="14" height="14" rx="2" fill="#40c463"/><rect x="302" y="93" width="14" height="14" rx="2" fill="#40c463"/><rect x="320" y="93" width="14" height="14" rx="2" fill="#30a14e"/><rect x="338" y="93" width="14" height="14" rx="2" fill="#40c463"/><rect x="356" y="93" width="14" height="14" rx="2" fill="#40c463"/><rect x="374" y="93" width="14" height="14" rx="2" fill="#30a14e"/><rect x="392" y="93" width="14" height="14" rx="2" fill="#40c463"/><rect x="410" y="93" width="14" height="14" rx="2" fill="#40c463"/><rect x="428" y="93" width="14" height="14" rx="2" fill="#40c463"/><rect x="446" y="93" width="14" height="14" rx="2" fill="#9be9a8"/><rect x="464" y="93" width="14" height="14" rx="2" fill="#9be9a8"/><rect x="50" y="111" width="14" height="14" rx="2" fill="#9be9a8"/><rect x="68" y="111" width="14" height="14" rx="2" fill="#ebedf0"/><rect x="86" y="111" width="14" height="14" rx="2" fill="#ebedf0"/><rect x="104" y="111" width="14" height="14" rx="2" fill="#ebedf0"/><rect x="122" y="111" width="14" height="14" rx="2" fill="#ebedf0"/><rect x="140" y="111" width="14" height="14" rx="2" fill="#ebedf0"/><rect x="158" y="111" width="14" height="14" rx="2" fill="#9be9a8"/><rect x="176" y="111" width="14" height="14" rx="2" fill="#9be9a8"/><rect x="194" y="111" width="14" height="14" rx="2" fill="#9be9a8"/><rect x="212" y="111" width="14" height="14" rx="2" fill="#40c463"/><rect x="230" y="111" width="14" height="14" rx="2" fill="#40c463"/><rect x="248" y="111" width="14" height="14" rx="2" fill="#40c463"/><rect x="266" y="111" width="14" height="14" rx="2" fill="#40c463"/><rect x="284" y="111" width="14" height="14" rx="2" fill="#40c463"/><rect x="302" y="111" width="14" height="14" rx="2" fill="#40c463"/><rect x="320" y="111" width="14" height="14" rx="2" fill="#9be9a8"/><rect x="338" y="111" width="14" height="14" rx="2" fill="#9be9a8"/><rect x="356" y="111" width="14" height="14" rx="2" fill="#9be9a8"/><rect x="374" y="111" width="14" height="14" rx="2" fill="#9be9a8"/><rect x="392" y="111" width="14" height="14" rx="2" fill="#40c463"/><rect x="410" y="111" width="14" height="14" rx="2" fill="#30a14e"/><rect x="428" y="111" width="14" height="14" rx="2" fill="#30a14e"/><rect x="446" y="111" width="14" height="14" rx="2" fill="#40c463"/><rect x="464" y="111" width="14" height="14" rx="2" fill="#9be9a8"/><rect x="50" y="129" width="14" height="14" rx="2" fill="#9be9a8"/><rect x="68" y="129" width="14" height="14" rx="2" fill="#ebedf0"/><rect x="86" y="129" width="14" height="14" rx="2" fill="#ebedf0"/><rect x="104" y="129" width="14" height="14" rx="2" fill="#ebedf0"/><rect x="122" y="129" width="14" height="14" rx="2" fill="#ebedf0"/><rect x="140" y="129" width="14" height="14" rx="2" fill="#ebedf0"/><rect x="158" y="129" width="14" height="14" rx="2" fill="#ebedf0"/><rect x="176" y="129" width="14" height="14" rx="2" fill="#ebedf0"/><rect x="194" y="129" width="14" height="14" rx="2" fill="#9be9a8"/><rect x="212" y="129" width="14" height="14" rx="2" fill="#40c463"/><rect x="230" y="129" width="14" height="14" rx="2" fill="#30a14e"/><rect x="248" y="129" width="14" height="14" rx="2" fill="#30a14e"/><rect x="266" y="129" width="14" height="14" rx="2" fill="#40c463"/><rect x="284" y="129" width="14" height="14" rx="2" fill="#40c463"/><rect x="302" y="129" width="14" height="14" rx="2" fill="#30a14e"/><rect x="320" y="129" width="14" height="14" rx="2" fill="#9be9a8"/><rect x="338" y="129" width="14" height="14" rx="2" fill="#40c463"/><rect x="356" y="129" width="14" height="14" rx="2" fill="#40c463"/><rect x="374" y="129" width="14" height="14" rx="2" fill="#40c463"/><rect x="392" y="129" width="14" height="14" rx="2" fill="#40c463"/><rect x="410" y="129" width="14" height="14" rx="2" fill="#40c463"/><rect x="428" y="129" width="14" height="14" rx="2" fill="#30a14e"/><rect x="446" y="129" width="14" height="14" rx="2" fill="#40c463"/><rect x="464" y="129" width="14" height="14" rx="2" fill="#40c463"/><rect x="50" y="147" width="14" height="14" rx="2" fill="#9be9a8"/><rect x="68" y="147" width="14" height="14" rx="2" fill="#ebedf0"/><rect x="86" y="147" width="14" height="14" rx="2" fill="#9be9a8"/><rect x="104" y="147" width="14" height="14" rx="2" fill="#ebedf0"/><rect x="122" y="147" width="14" height="14" rx="2" fill="#ebedf0"/><rect x="140" y="147" width="14" height="14" rx="2" fill="#ebedf0"/><rect x="158" y="147" width="14" height="14" rx="2" fill="#ebedf0"/><rect x="176" y="147" width="14" height="14" rx="2" fill="#9be9a8"/><rect x="194" y="147" width="14" height="14" rx="2" fill="#40c463"/><rect x="212" y="147" width="14" height="14" rx="2" fill="#40c463"/><rect x="230" y="147" width="14" height="14" rx="2" fill="#40c463"/><rect x="248" y="147" width="14" height="14" rx="2" fill="#40c463"/><rect x="266" y="147" width="14" height="14" rx="2" fill="#40c463"/><rect x="284" y="147" width="14" height="14" rx="2" fill="#40c463"/><rect x="302" y="147" width="14" height="14" rx="2" fill="#40c463"/><rect x="320" y="147" width="14" height="14" rx="2" fill="#30a14e"/><rect x="338" y="147" width="14" height="14" rx="2" fill="#40c463"/><rect x="356" y="147" width="14" height="14" rx="2" fill="#40c463"/><rect x="374" y="147" width="14" height="14" rx="2" fill="#30a14e"/><rect x="392" y="147" width="14" height="14" rx="2" fill="#30a14e"/><rect x="410" y="147" width="14" height="14" rx="2" fill="#30a14e"/><rect x="428" y="147" width="14" height="14" rx="2" fill="#216e39"/><rect x="446" y="147" width="14" height="14" rx="2" fill="#40c463"/><rect x="464" y="147" width="14" height="14" rx="2" fill="#40c463"/><rect x="50" y="165" width="14" height="14" rx="2" fill="#9be9a8"/><rect x="68" y="165" width="14" height="14" rx="2" fill="#ebedf0"/><rect x="86" y="165" width="14" height="14" rx="2" fill="#ebedf0"/><rect x="104" y="165" width="14" height="14" rx="2" fill="#ebedf0"/><rect x="122" y="165" width="14" height="14" rx="2" fill="#ebedf0"/><rect x="140" y="165" width="14" height="14" rx="2" fill="#ebedf0"/><rect x="158" y="165" width="14" height="14" rx="2" fill="#ebedf0"/><rect x="176" y="165" width="14" height="14" rx="2" fill="#9be9a8"/><rect x="194" y="165" width="14" height="14" rx="2" fill="#9be9a8"/><rect x="212" y="165" width="14" height="14" rx="2" fill="#40c463"/><rect x="230" y="165" width="14" height="14" rx="2" fill="#30a14e"/><rect x="248" y="165" width="14" height="14" rx="2" fill="#30a14e"/><rect x="266" y="165" width="14" height="14" rx="2" fill="#30a14e"/><rect x="284" y="165" width="14" height="14" rx="2" fill="#40c463"/><rect x="302" y="165" width="14" height="14" rx="2" fill="#216e39"/><rect x="320" y="165" width="14" height="14" rx="2" fill="#30a14e"/><rect x="338" y="165" width="14" height="14" rx="2" fill="#30a14e"/><rect x="356" y="165" width="14" height="14" rx="2" fill="#30a14e"/><rect x="374" y="165" width="14" height="14" rx="2" fill="#40c463"/><rect x="392" y="165" width="14" height="14" rx="2" fill="#9be9a8"/><rect x="410" y="165" width="14" height="14" rx="2" fill="#30a14e"/><rect x="428" y="165" width="14" height="14" rx="2" fill="#40c463"/><rect x="446" y="165" width="14" height="14" rx="2" fill="#9be9a8"/><rect x="464" y="165" width="14" height="14" rx="2" fill="#40c463"/><text x="16" y="201" font-size="11" fill="#656d76">共 5594 次 · 峰值 周一 14:00 · 截至 2026-07-23</text></g></svg>