<svg xmlns="http://www.w3.org/2000/svg" width="260" height="181" viewBox="0 0 260 181" role="img" aria-label="三源使用趋势"><rect x="0.5" y="0.5" width="259" height="180" rx="8" fill="#ffffff" stroke="#d0d7de"/><g font-family='-apple-system,BlinkMacSystemFont,"Segoe UI",Helvetica,Arial,sans-serif'><text x="16" y="31" font-size="15" font-weight="600" fill="#1f2328">三源使用趋势</text><rect x="16" y="141" width="12" height="1" fill="#8250df"/><rect x="16" y="113" width="12" height="28" fill="#1f6feb"/><rect x="16" y="111" width="12" height="2" fill="#2da44e"/><rect x="32" y="141" width="12" height="1" fill="#8250df"/><rect x="32" y="71" width="12" height="70" fill="#1f6feb"/><rect x="32" y="68" width="12" height="3" fill="#2da44e"/><rect x="48" y="105" width="12" height="37" fill="#1f6feb"/><rect x="64" y="77" width="12" height="65" fill="#1f6feb"/><rect x="80" y="110" width="12" height="32" fill="#1f6feb"/><rect x="96" y="135" width="12" height="7" fill="#8250df"/><rect x="96" y="114" width="12" height="21" fill="#1f6feb"/><rect x="112" y="63" width="12" height="79" fill="#8250df"/><rect x="112" y="46" width="12" height="17" fill="#1f6feb"/><rect x="128" y="84" width="12" height="58" fill="#8250df"/><rect x="128" y="80" width="12" height="4" fill="#1f6feb"/><rect x="128" y="70" width="12" height="10" fill="#2da44e"/><rect x="144" y="96" width="12" height="46" fill="#8250df"/><rect x="144" y="84" width="12" height="12" fill="#2da44e"/><rect x="160" y="63" width="12" height="79" fill="#8250df"/><rect x="160" y="53" width="12" height="10" fill="#1f6feb"/><rect x="160" y="48" width="12" height="5" fill="#2da44e"/><rect x="176" y="76" width="12" height="66" fill="#8250df"/><rect x="176" y="66" width="12" height="10" fill="#1f6feb"/><rect x="176" y="65" width="12" height="1" fill="#2da44e"/><rect x="192" y="110" width="12" height="32" fill="#8250df"/><rect x="192" y="96" width="12" height="14" fill="#1f6feb"/><rect x="208" y="104" width="12" height="38" fill="#8250df"/><rect x="208" y="74" width="12" height="30" fill="#1f6feb"/><rect x="208" y="73" width="12" height="1" fill="#2da44e"/><rect x="224" y="121" width="12" height="21" fill="#8250df"/><rect x="224" y="117" width="12" height="4" fill="#1f6feb"/><rect x="16" y="148" width="10" height="10" rx="2" fill="#8250df"/><text x="30" y="157" font-size="10" fill="#656d76">Claude</text><rect x="108" y="148" width="10" height="10" rx="2" fill="#1f6feb"/><text x="122" y="157" font-size="10" fill="#656d76">Codex</text><rect x="200" y="148" width="10" height="10" rx="2" fill="#2da44e"/><text x="214" y="157" font-size="10" fill="#656d76">opencode</text><text x="16" y="175" font-size="11" fill="#656d76">共 5594 次 · 近 14 周 · 截至 2026-07-24</text></g></svg>